<?xml version="1.0" encoding="UTF-8"?>
<svg id="Capa_1" data-name="Capa 1" xmlns="http://www.w3.org/2000/svg" viewBox="0 0 141.73 141.73">
  <defs>
    <style>
      .cls-1 {
        fill: #77b483;
      }

      .cls-2 {
        fill: #fffaf8;
      }
    </style>
  </defs>
  <rect class="cls-2" width="141.73" height="141.73"/>
  <g>
    <path class="cls-1" d="M99.37,50.2v-15.04c0-1.1-.89-1.99-1.99-1.99h-14.99c-1.1,0-1.99-.89-1.99-1.99v-15.01c0-1.1-.89-1.99-1.99-1.99h-15.04c-1.1,0-1.99.89-1.99,1.99v15.02c0,1.1-.89,1.99-1.99,1.99h-15.04c-1.1,0-1.99.89-1.99,1.99v33.33c0,1.1.89,1.99,1.99,1.99h15c1.1,0,1.99.89,1.99,1.99v15.04c0,1.1.89,1.99,1.99,1.99h15.05c1.1,0,1.99-.89,1.99-1.99v-15.05c0-1.1-.89-1.99-1.99-1.99h-15c-1.1,0-1.99-.89-1.99-1.99v-33.3c0-1.1.89-1.99,1.99-1.99h14.98c1.1,0,1.99.89,1.99,1.99v15.01c0,1.1.89,1.99,1.99,1.99h15.05c1.1,0,1.99-.89,1.99-1.99Z"/>
    <rect class="cls-1" x="42.37" y="89.61" width="19.03" height="37.95" rx="1.99" ry="1.99"/>
  </g>
</svg>