<?xml version="1.0" encoding="UTF-8"?>
<svg id="Capa_1" data-name="Capa 1" xmlns="http://www.w3.org/2000/svg" viewBox="0 0 141.73 33.06">
  <defs>
    <style>
      .cls-1 {
        fill: #77b483;
      }

      .cls-2 {
        fill: #504573;
      }
    </style>
  </defs>
  <g>
    <path class="cls-1" d="M16.63,10.51v-4.39c0-.32-.26-.58-.58-.58h-4.37c-.32,0-.58-.26-.58-.58V.58c0-.32-.26-.58-.58-.58h-4.39c-.32,0-.58.26-.58.58v4.38c0,.32-.26.58-.58.58H.58c-.32,0-.58.26-.58.58v9.72c0,.32.26.58.58.58h4.37c.32,0,.58.26.58.58v4.39c0,.32.26.58.58.58h4.39c.32,0,.58-.26.58-.58v-4.39c0-.32-.26-.58-.58-.58h-4.38c-.32,0-.58-.26-.58-.58V6.13c0-.32.26-.58.58-.58h4.37c.32,0,.58.26.58.58v4.38c0,.32.26.58.58.58h4.39c.32,0,.58-.26.58-.58Z"/>
    <rect class="cls-1" x="0" y="22" width="5.55" height="11.07" rx=".58" ry=".58"/>
  </g>
  <path class="cls-2" d="M46.84,24.77l2.72-13.89c.3-.76.75-1.4,1.35-1.92.6-.52,1.35-.78,2.25-.78h1.92c.46,0,.85.08,1.17.23.32.15.64.38.94.68.32-.3.68-.53,1.1-.68.42-.15.86-.23,1.32-.23h3.32v2.42h2.42v14.17h-2.42v-14.17h-3.32c-.3,0-.58.12-.83.37-.25.25-.38.53-.38.84v12.96h-2.42v-12.96c0-.32-.07-.6-.21-.84-.14-.24-.37-.37-.69-.37h-1.92c-.3,0-.54.07-.71.21-.17.14-.34.37-.5.69l-2.39,13.27h-2.72Z"/>
  <path class="cls-2" d="M44.39,11.81v12.96h-2.42v-12.96c0-.32-.07-.6-.21-.84-.14-.24-.37-.37-.69-.37h-4.24c-.3,0-.54.07-.71.21-.17.14-.34.37-.5.69l-2.39,13.27h-2.72l2.72-13.89c.3-.76.75-1.4,1.35-1.92.6-.52,1.35-.78,2.25-.78h4.24c3.61,0,3.32,3.63,3.32,3.63Z"/>
  <path class="cls-2" d="M67.45,21.15v-9.34c0-.52.09-1.01.26-1.46.17-.45.41-.83.72-1.15.31-.32.66-.56,1.07-.75.4-.18.83-.27,1.27-.27h9.05v2.42h-9.05c-.3,0-.53.12-.68.37-.15.25-.23.53-.23.84v9.34c0,.32.07.6.23.84.15.25.38.37.68.37h8.15v-5.73h-6.04l1.52-2.42h6.94v8.15h-2.42v2.42h-8.15c-.44,0-.86-.09-1.27-.27-.4-.18-.76-.43-1.07-.75-.31-.32-.55-.7-.72-1.15-.17-.45-.26-.94-.26-1.46Z"/>
  <path class="cls-1" d="M88.66,24.77v-14.17h2.42v-2.42h9.03v2.42h-9.03v5.43h9.03v2.42h-9.03v6.33h-2.42Z"/>
  <path class="cls-1" d="M104.56,8.18v16.61h-2.44V8.18h2.44Z"/>
  <path class="cls-1" d="M106.92,10.6h2.42v-2.42h7.84c.46,0,.9.09,1.33.27.43.18.81.43,1.16.75.35.32.62.7.83,1.15.21.45.31.94.31,1.46v2.7l-2.42-1.21v-1.49c0-.32-.13-.6-.38-.84-.25-.24-.53-.37-.83-.37h-7.84v2.7l11.47,5.73v2.42c0,.44-.1.86-.31,1.27-.21.4-.48.76-.83,1.07-.35.31-.73.55-1.16.72-.43.17-.87.26-1.33.26h-6.94c-.44,0-.86-.09-1.27-.26-.4-.17-.76-.41-1.07-.72-.31-.31-.55-.66-.72-1.07-.17-.4-.26-.83-.26-1.27v-4.22l2.42,1.21v3.01c0,.6.3.9.9.9h6.94c.3,0,.58-.07.83-.23.25-.15.38-.38.38-.68v-.9l-9.05-4.53-2.42-1.52v-3.91Z"/>
  <path class="cls-1" d="M125.24,8.18v16.61h-2.44V8.18h2.44Z"/>
  <path class="cls-1" d="M131,24.77c-.46,0-.89-.09-1.3-.27-.41-.18-.77-.43-1.08-.73s-.55-.67-.73-1.08c-.18-.41-.27-.84-.27-1.3v-10.73h2.46v-2.46h7.99c.46,0,.91.09,1.35.27.44.18.84.43,1.18.73.35.31.62.67.83,1.08.21.41.31.85.31,1.3v9.81c0,.46-.1.89-.31,1.3-.21.41-.48.77-.83,1.08-.35.31-.74.55-1.18.73-.44.18-.89.27-1.35.27h-7.06ZM130.07,21.38c0,.62.31.92.92.92h7.06c.32,0,.6-.07.85-.23.25-.15.38-.38.38-.7v-9.81c0-.32-.13-.55-.38-.7-.25-.15-.54-.23-.85-.23h-7.99v10.73Z"/>
  <rect class="cls-2" x="62.57" y="8.18" width="2.42" height="2.42"/>
  <rect class="cls-2" x="36.92" y="12.58" width="2.42" height="9.72" transform="translate(55.57 -20.69) rotate(90)"/>
</svg>